<?xml version="1.0" standalone="no"?>
<!DOCTYPE svg PUBLIC "-//W3C//DTD SVG 20010904//EN"
    "http://www.w3.org/TR/2001/REC-SVG-20010904/DTD/svg10.dtd">
<svg version="1.0" xmlns="http://www.w3.org/2000/svg" viewBox="0 0 900.000000 900.000000"
     preserveAspectRatio="xMidYMid meet">
    <defs>
        <style type="text/css">
            @import url('https://fonts.googleapis.com/css2?family=Dancing+Script:wght@400..700&amp;family=Lora:ital,wght@0,400..700;1,400..700&amp;display=swap')
        </style>
    </defs>
    <circle fill="#AAA" cx="450" cy="450" r="390" />
    <circle stroke-width="60" fill="none" stroke="#000" cx="450" cy="450" r="395" />
    <circle stroke-width="50" fill="none" stroke="#daa520" cx="450" cy="450" r="395" />

    <g transform="translate(315,573)">
        <text font-weight="700" font-family='Lora' stroke="#000000" stroke-width="5"
              fill="#2828c8" font-size="310px">G</text>
    </g>

    <g transform="translate(144.5,463) rotate(-45)">
        <polygon fill="#daa520" stroke="#000000" stroke-width="5"
                 points="0,0 80,0
                    80,40 60,40 80,40
                    80,70 60,70 80,70
                    80,100 60,100 80,100
                    80,130 60,130 80,130
                    80,160 60,160 80,160
                    80,190 60,190 80,190
                    80,220 60,220 80,220
                    80,250 60,250 80,250
                    80,280 60,280 80,280
                    80,310 60,310 80,310
                    80,350
                    120,350 120,370, 120,350
                    150,350 150,370, 150,350
                    180,350 180,370, 180,350
                    210,350 210,370, 210,350
                    240,350 240,370, 240,350
                    270,350 270,370, 270,350
                    300,350 300,370, 300,350
                    330,350 330,370, 330,350
                    360,350 360,370, 360,350
                    390,350 390,370, 390,350
                    430,350, 430,430, 0,430"/>
    </g>
    <g transform="translate(430,123) rotate(25) scale(1.2,1.2)">
        <polygon fill="#daa520" stroke="#000000" stroke-width="5"
                 points="0,25 3.6,12 7.3,7.3 12,3.6 25.0,0.0 38,3.6
             42.3,7.3 46.4,12 50,25 0,500"/>
    </g>
    <g transform="translate(465,123) rotate(-25) scale(-1.2,1.2)">
        <polygon fill="#daa520" stroke="#000000" stroke-width="5"
                 points="0,25 3.6,12 7.3,7.3 12,3.6 25.0,0.0 38,3.6
             42.3,7.3 46.4,12 50,25 0,500"/>
    </g>
</svg>
